<svg width="259" height="120" viewBox="0 0 259 120" fill="none" xmlns="http://www.w3.org/2000/svg">
<path d="M45.3047 111.18C45.3047 111.067 45.3047 110.953 45.4264 110.503C45.5482 110.052 45.7917 109.267 55.6832 94.3089C65.5746 79.3508 85.1065 50.2433 106.011 19.5322" stroke="#449E4B" stroke-width="5" stroke-linecap="round"/>
<path d="M92.666 21.0107C92.8366 21.7512 95.5988 27.9645 102.363 41.3076C106.622 49.7097 112.918 61.2389 116.931 68.7819C122.614 79.4641 124.486 83.3726 125.287 85.3893C129.201 95.2478 136.299 107.678 138.613 112.048C139.082 112.855 139.711 113.869 140.173 114.682C140.635 115.495 140.912 116.076 141.353 117.128" stroke="#449E4B" stroke-width="5" stroke-linecap="round"/>
<path d="M99.0684 31.2012C99.1133 31.2012 107.468 31.2989 120.694 31.5292C126.801 31.6355 128.793 31.9955 131.53 32.0265C144.578 32.1744 155.198 32.5747 157.792 32.7131C158.449 32.7469 159.099 32.8143 159.74 32.879C160.381 32.9436 160.992 33.0033 163.029 33.1424" stroke="#449E4B" stroke-width="5" stroke-linecap="round"/>
<path d="M155.957 21.3496C156.181 22.3907 157.418 24.7842 162.367 33.2529C166.068 39.586 172.986 51.4816 176.765 58.0076C180.996 65.3159 183.818 71.3067 187.803 79.539C190.664 85.4506 194.487 91.397 197.522 96.6542C198.935 99.1023 201.569 104.153 203.852 107.667C204.218 108.213 204.542 108.789 204.89 109.362C205.239 109.934 205.604 110.486 206.073 111.716" stroke="#449E4B" stroke-width="5" stroke-linecap="round"/>
<path d="M28.6719 114.187C28.7052 114.187 33.3226 114.187 40.7344 114.132C43.5464 114.112 44.4293 113.969 57.1114 113.573C69.7934 113.177 94.2474 112.498 122.29 112.39C150.333 112.281 181.223 112.764 202.14 112.874C223.057 112.985 233.064 112.709 243.677 112.593" stroke="#449E4B" stroke-width="5" stroke-linecap="round"/>
<path d="M97.677 33.6123C97.677 33.7237 97.677 39.7186 97.6308 48.9958C97.4921 52.898 97.3962 54.9713 97.2483 66.0736C97.101 75.6819 96.8069 93.3592 96.5039 111.572" stroke="#449E4B" stroke-width="5" stroke-linecap="round"/>
<path d="M161.867 32.4678H167.641" stroke="#449E4B" stroke-width="5" stroke-linecap="round"/>
<path d="M227.42 112.774C227.42 112.753 227.42 108.588 227.437 102.147C227.453 99.8597 227.486 99.5638 227.695 96.1511C227.903 92.7385 228.285 86.218 228.679 79.5" stroke="#449E4B" stroke-width="5" stroke-linecap="round"/>
<path d="M231.738 78.4209C231.738 78.452 231.738 78.483 231.738 82.6661C231.738 86.8492 231.738 95.1834 231.722 99.6308C231.547 106.614 231.31 110.801 231.248 111.42C231.227 111.728 231.227 112.023 231.195 112.398" stroke="#449E4B" stroke-width="5" stroke-linecap="round"/>
<path d="M227.258 18.7458C227.258 18.7874 227.208 20.7547 226.862 24.6012C226.522 28.3771 225.017 31.1222 223.478 33.9583C222.449 35.8556 220.676 38.5477 219.124 40.6997C214.573 47.0131 212.038 48.0798 211.927 48.164C210.53 49.2233 216.19 45.7852 220.109 42.6945C224.42 39.2956 226.892 35.3754 228.075 33.4509C228.424 32.8828 228.468 33.2826 227.296 36.1782C226.124 39.0738 223.787 44.4884 221.784 48.5787C219.782 52.6689 218.186 55.2707 216.581 57.4839C211.642 64.2958 208.875 65.5482 207.93 66.2484C204.742 68.6107 218.266 63.145 220.294 62.6347C222.189 62.1581 215.457 68.3913 212.86 71.0905C210.262 73.7897 208.877 74.8923 208.037 75.5239C207.197 76.1554 206.944 76.2825 208.633 76.3673C213.957 76.6343 218.057 76.4567 219.473 75.9064C224.63 73.901 225.378 72.7108 226.102 71.9555C226.755 71.2749 225.122 73.4698 221.614 78.0707C220.043 80.1317 218.519 81.3363 216.304 82.8779C211.265 86.3846 207.248 88.3854 206.133 88.9753C203.637 90.2965 215.483 88.5266 219.423 86.9472C225.425 84.541 228.128 79.8868 229.597 77.9353C230.034 77.3544 230.508 76.5611 231.039 75.9681C231.594 75.3484 232.658 79.9807 234.597 83.204C235.039 83.9389 236.706 84.897 239.975 86.536C246.717 89.9159 247.975 89.134 248.362 89.0303C249.414 88.7485 246.954 87.0235 245.178 85.053C242.874 82.4954 240.98 79.9396 239.659 78.5127C239.014 77.8157 238.502 77.1005 239.692 77.2342C243.935 77.7106 248.698 79.6404 252.07 80.0373C253.57 80.2139 254.663 80.1324 255.168 79.988C255.674 79.8437 255.565 79.586 255.266 79.3515C252.044 76.8212 246.163 74.6502 243.676 72.4084C239.622 68.755 239.239 66.6133 238.932 65.4608C238.79 64.9299 242.521 65.3004 247.607 65.7787C251.469 66.1418 253.514 65.8541 254.147 65.6062C254.435 65.4934 254.56 65.2138 254.484 65.0038C254.3 64.4906 251.492 62.8968 247.534 60.1109C242.308 56.4325 240.396 52.2297 239.818 50.9795C239.25 49.7516 243.768 52.0384 249.869 52.1331C251.218 52.154 251.679 52.0442 252.016 51.9093C252.353 51.7743 252.553 51.5716 252.481 51.397C251.574 49.2086 246.459 48.0088 241.924 43.5234C238.042 39.6834 237.602 36.5781 237.112 35.7154C236.496 34.6333 240.252 38.2428 243.993 39.3088C245.057 39.612 246.133 39.4952 246.614 39.3577C247.095 39.2202 246.979 38.9321 246.753 38.6746C245.365 37.0905 242.941 34.8378 240.699 31.5502C239.213 29.3709 237.318 25.9578 235.2 21.7506C233.083 17.5433 230.878 12.595 229.714 9.8708C228.415 6.82944 228.439 4.94342 228.433 2.84301C228.431 2.23464 228.415 2.55525 228.363 2.90206C227.988 5.40722 228.061 9.05275 227.959 11.5697C227.901 16.0019 227.845 19.3999 227.76 20.3878C227.701 20.9206 227.611 21.5173 227.482 22.1802" stroke="#449E4B" stroke-width="5" stroke-linecap="round"/>
<path d="M10.8411 105.77C13.7527 107.406 18.7714 108.336 20.0657 108.358C23.7589 108.127 26.4245 108.567 29.7205 105.594C31.2682 104.197 34.2457 102.565 34.736 100.302C34.9956 99.1028 35.2719 95.7544 35.0448 91.2007C34.9445 89.1888 34.7937 87.7445 34.5041 86.547C33.9817 84.3864 32.8321 81.0387 30.8027 77.3895C29.4969 75.0413 28.7726 73.9267 28.2332 73.6096C27.9764 73.4586 27.6387 73.4048 27.7524 73.7195C28.1304 74.765 29.1118 76.0153 28.3989 80.2187C27.8823 83.2645 27.5699 85.3047 27.1316 85.6544C26.9389 85.8082 26.5858 85.9049 26.459 85.7107C25.5572 84.3287 24.7278 80.4912 24.6404 81.1636C24.4055 82.9699 21.4386 91.1909 20.8046 89.0528C20.3496 87.5186 20.137 84.861 20.0523 82.4015C20.0202 81.4709 19.9813 81.1491 19.0414 82.3777C18.1015 83.6063 16.352 86.33 15.2627 87.8306C13.903 89.7038 13.262 90.4158 12.56 90.6256C12.2727 90.7114 12.0169 90.6887 11.9076 90.4958C11.4437 89.6767 12.0955 87.5342 11.5369 87.9519C11.3047 88.1256 10.1437 88.3023 8.02572 92.6374C6.4799 95.8013 5.87429 98.3544 6.48388 100.206C6.9215 101.536 7.34237 103.804 10.8411 105.77Z" stroke="#449E4B" stroke-width="5" stroke-linecap="round"/>
<path d="M21.9368 60.9635C21.9368 58.6577 22.0369 53.3123 22.2054 50.9703C22.4032 48.2216 22.7537 46.1671 23.3245 44.9675C23.92 43.7161 25.412 43.023 25.9075 41.6748C26.1292 41.0716 26.2318 40.0715 26.1356 38.9384C26.0241 37.6253 22.9838 36.6017 21.3467 35.112C19.8887 33.7853 19.7581 31.3815 19.6774 27.2845C19.6533 26.0587 20.2353 25.0018 20.8805 23.7426C21.7078 22.1279 23.7857 22.2202 25.2752 21.3346C28.7921 19.2436 27.1106 14.8561 26.7074 12.805C26.4403 11.4456 24.5528 9.92314 22.932 8.71354C21.7277 7.81474 20.0636 6.50486 18.6256 5.58722C18.045 5.21673 17.1853 5.30789 16.3676 5.40675C14.0257 5.6899 12.7519 9.99943 11.8619 13.2189C11.558 14.3183 11.646 15.3372 11.6959 16.4031C11.7353 17.2452 12.4056 17.7269 12.986 18.0131C14.9525 18.9831 18.1523 18.5559 19.4261 18.3994C21.9439 18.09 19.8779 12.3247 19.4433 11.8683C18.5603 10.9412 17.2508 11.2235 16.6051 11.3588C16.155 11.7647 15.8624 12.3266 15.6385 12.8975C15.5284 13.1852 15.4256 13.4691 15.246 14.616" stroke="#449E4B" stroke-width="5" stroke-linecap="round"/>
<path d="M34.6281 55.0179C34.6281 54.5878 34.5617 53.2628 34.6389 51.133C34.6915 49.6831 35.9271 46.9853 37.1258 43.9094C38.0833 41.4525 38.6177 38.5395 38.6369 37.1723C38.648 36.3779 36.9914 34.5461 35.7591 32.4823C34.7608 30.8104 35.1689 28.6396 35.5783 26.471C36.0277 24.0902 38.3184 22.0764 40.2566 20.4866C41.5659 19.4128 42.3492 19.4026 43.7275 19.4335C44.6394 19.454 45.2636 21.0554 46.171 23.7986C46.4207 24.5534 46.49 25.3174 46.5745 27.1533C46.6589 28.9893 46.6943 31.8919 46.6834 33.4642C46.6714 35.192 46.4728 35.5159 46.2936 35.8333C45.9367 36.4654 44.9836 36.6724 43.9817 36.7186C43.4567 36.7428 43.0533 36.4418 42.7454 36.1865C42.3889 35.8909 41.6056 34.2569 40.5617 31.8771C39.3967 29.2213 40.0591 27.0457 40.4231 26.4953C40.5139 26.358 40.6861 26.3017 40.8413 26.2633C40.9966 26.225 41.1597 26.2318 41.2957 26.303C42.0478 26.6966 42.441 28.3523 43.1288 29.9315C43.2592 30.2387 43.2975 30.3953 43.3339 30.5561C43.3704 30.717 43.4038 30.8774 43.4382 31.0427" stroke="#449E4B" stroke-width="5" stroke-linecap="round"/>
<path d="M12.504 73.8403C12.504 73.0131 12.4704 70.7057 12.2631 69.6451C12.0995 68.8087 11.4739 67.944 10.3941 66.7153C7.2892 63.1826 6.79836 62.6837 6.51638 61.694C5.99571 59.8664 6.59787 57.2188 7.12974 56.4573C7.80243 55.4942 8.77945 55.3445 10.0015 54.9883C10.2804 54.907 10.429 54.8216 10.5139 54.6304C10.9055 53.7486 9.8296 51.7652 8.58441 49.6112C7.56885 47.8543 6.22532 47.3801 5.19188 46.8584C3.88432 46.1983 3.17701 45.1654 2.68194 44.0995C2.46392 43.6301 2.48505 42.7484 2.52714 41.6913C2.55643 40.9559 3.29679 39.9203 4.76035 38.1788C8.15199 34.143 9.68494 33.9159 10.3418 33.7922C10.7172 33.7215 11.0962 33.8948 11.4048 34.1645C11.7293 34.4479 11.8451 34.9151 12.0205 36.5361C12.4559 40.5609 12.3429 43.4488 12.2019 43.7949C12.1271 43.9782 11.9999 44.1567 11.8593 44.3082C11.0275 45.2043 8.89814 44.6356 8.24016 44.3875C7.93365 44.2719 7.74636 43.8938 7.58692 43.4971C7.47467 42.4035 7.52528 41.2065 7.63536 40.8185C7.69483 40.6322 7.76163 40.4677 8.21044 40.0424" stroke="#449E4B" stroke-width="5" stroke-linecap="round"/>
<path d="M8.9344 111.971C8.91821 112.604 8.93668 114.045 9.10365 114.512C9.32431 115.13 9.65794 115.336 9.96649 115.493C10.1832 115.603 10.5306 115.588 10.8591 115.573C11.2497 115.555 11.4327 115.029 11.5799 114.515C11.7782 113.822 11.7379 112.758 11.7233 111.831C11.711 111.044 11.15 110.357 10.7227 109.945C10.4102 109.643 10.0614 109.576 9.76681 109.576C9.51214 109.9 9.28879 110.376 9.1945 110.655C9.16832 110.771 9.13719 110.945 9.09001 111.21" stroke="#449E4B" stroke-width="5" stroke-linecap="round"/>
<path d="M9.95312 109.353C9.96939 109.353 9.98565 109.353 10.0538 109.348C10.122 109.343 10.2415 109.333 13.0226 108.322C15.8037 107.311 21.2426 105.3 24.0726 104.266C26.9026 103.232 26.9588 103.236 27.1561 103.393C27.711 103.832 28.1255 104.291 28.3325 104.605C28.6316 105.059 28.7789 105.448 28.8531 105.684C28.9687 106.052 29.0228 107.008 29.0368 108.242C29.0425 108.75 29.0231 109.02 28.9032 109.166C28.7832 109.311 28.5576 109.324 27.9442 109.47C27.3307 109.617 26.3364 109.898 24.2585 110.76C22.1806 111.622 19.0492 113.057 17.2534 113.851C15.4575 114.646 15.0921 114.756 14.5051 114.921C13.9182 115.087 13.1208 115.304 12.5959 115.431C11.8429 115.59 11.4771 115.637 11.2503 115.664C11.1543 115.678 11.0969 115.69 11.0227 115.704" stroke="#449E4B" stroke-width="5" stroke-linecap="round"/>
<path d="M7.89877 102.72C7.92537 102.087 8.04109 100.65 8.23923 100.195C8.50108 99.594 8.84784 99.4112 9.16629 99.2754C9.38991 99.18 9.73548 99.2188 10.0623 99.2558C10.4507 99.2999 10.5979 99.8367 10.71 100.36C10.8611 101.065 10.749 102.123 10.6719 103.048C10.6064 103.832 10.0003 104.479 9.54621 104.862C9.2141 105.141 8.86153 105.185 8.56763 105.165C8.33538 104.825 8.1447 104.335 8.06948 104.05C8.05116 103.933 8.03189 103.756 8.0027 103.489" stroke="#449E4B" stroke-width="5" stroke-linecap="round"/>
<path d="M8.73811 105.4C8.75433 105.401 8.77056 105.402 8.83822 105.412C8.90587 105.422 9.02447 105.44 11.731 106.636C14.4374 107.832 24.1639 112.514 26.9176 113.737C29.6713 114.96 29.7277 114.959 29.9351 114.817C30.5184 114.416 30.963 113.986 31.1907 113.686C31.5198 113.253 31.693 112.875 31.7829 112.645C31.9231 112.286 32.0417 111.335 32.1389 110.105C32.1789 109.598 32.1778 109.328 32.0679 109.175C31.9581 109.022 31.7338 108.994 31.1317 108.806C30.5296 108.618 29.5564 108.271 27.5415 107.271C25.5265 106.27 18.0635 102.319 16.3253 101.405C14.5872 100.491 14.2301 100.357 13.6557 100.152C13.0812 99.9473 12.3003 99.6768 11.7852 99.514C11.0447 99.3045 10.6828 99.2337 10.4584 99.191C10.3635 99.171 10.3071 99.1544 10.234 99.1362" stroke="#449E4B" stroke-width="5" stroke-linecap="round"/>
</svg>
