<svg width="239" height="76" viewBox="0 0 239 76" fill="none" xmlns="http://www.w3.org/2000/svg">
<path d="M109.238 30.5096C108.041 30.5096 104.99 30.5684 102.024 30.6873C100.282 30.7572 97.239 30.7465 95.6335 30.9601C93.8591 31.1961 92.9968 35.0742 91.1648 41.6478C87.9773 53.0858 87.6304 54.6027 87.4319 55.9147C87.3594 56.3942 87.7825 56.5122 88.3543 56.5709C90.9949 56.8419 92.5765 56.9019 95.2952 57.1552C98.852 57.4866 104.293 57.2316 105.585 56.9631C107.872 56.4881 106.111 51.0897 106.702 49.8091C107.283 48.5491 108.525 47.2467 109.836 46.1135C111.021 45.0888 112.867 44.7975 114.874 44.5655C119.149 44.0711 120.833 45.2164 122.018 46.0519C123.307 46.9611 123.916 49.2801 124.495 51.6318C124.843 53.0438 124.756 54.8179 125.826 56.4617C126.472 57.4549 128.925 57.038 132.465 57.0702C136.004 57.1025 140.963 57.1535 144.136 57.1169C150.176 57.0473 153.804 56.365 157.762 56.1939C162.324 55.9966 166.766 56.1419 168.917 55.9365C172.112 55.6315 169.749 47.8459 170.343 46.333C170.934 44.8295 172.673 43.717 174.124 43.0184C176.138 42.0486 180.462 42.2236 183.125 42.5898C186.3 43.0264 187.358 44.3039 188.933 45.9845C191.4 48.6184 191.069 50.407 191.209 53.1904C191.256 54.1446 191.33 55.0245 191.959 55.8568C194.013 58.5747 197.377 55.9948 199.855 55.6828C203.154 55.2674 208.237 55.4594 209.731 55.2428C210.071 55.1935 210.279 54.874 210.384 54.5746C210.85 53.2345 209.746 51.134 209.116 48.3469C208.604 46.0827 208.3 43.6779 207.831 40.2927C207.521 38.056 207.514 36.148 207.393 34.247C207.303 32.8269 206.986 31.5399 206.894 30.2339C206.869 29.8828 206.845 29.5041 206.734 29.1852C206.623 28.8664 206.429 28.6186 206.163 28.5293C204.953 28.1232 203.583 28.8001 201.702 29.0051C197.506 29.4624 195.858 29.2826 191.683 29.275C189.622 29.2713 188.349 27.9001 187.137 26.923C185.528 25.6264 184.168 25.0161 183.449 23.9621C183.069 23.4054 182.52 19.5829 181.21 13.7585C179.898 7.92743 179.456 6.02822 179.053 4.47717C178.884 3.8223 178.756 3.17545 178.374 2.67805C177.845 1.98961 172.91 2.35957 164.969 2.53553C157.62 2.69835 153.118 3.45861 150.633 3.5681C146.927 3.73135 141.968 4.05682 137.567 4.33411C135.425 4.46904 131.129 4.55439 125.066 4.59939C121.2 4.62809 119.466 5.14909 117.05 5.31462C116.546 5.34921 116.267 5.53977 116.101 5.76909C115.199 7.02026 114.186 10.7468 112.877 14.8981C111.013 20.8053 111.39 24.3121 111.079 25.8134C110.897 26.6874 110.713 27.4879 110.55 28.1459C110.47 28.4855 110.393 28.8366 110.013 29.823" stroke="#DC3434" stroke-width="4.55516" stroke-linecap="round"/>
<path d="M107.287 53.8805C107.273 54.2007 106.884 56.3448 106.506 58.5724C105.887 62.2127 106.867 63.5933 107.337 64.6598C107.704 65.4935 108.751 66.4524 110.205 67.5071C111.709 68.5974 114.91 68.788 118.273 68.8399C119.844 68.8641 120.876 68.0447 121.697 67.4402C122.451 66.8845 123.009 66.0126 123.863 63.9307C125.016 61.1182 125.33 58.1671 125.327 55.1378C125.187 54.1742 125.004 53.6698 124.818 53.2791C124.72 53.088 124.615 52.9114 124.339 52.5273" stroke="#DC3434" stroke-width="4.55516" stroke-linecap="round"/>
<path d="M113.789 52.2305C113.516 52.993 112.799 55.7337 112.762 58.3414C112.748 59.3745 113.229 59.9519 113.465 60.258C113.961 60.9025 115.023 61.2913 115.923 61.3557C117.696 61.4827 117.592 57.011 117.561 54.6135C117.304 52.8994 117.015 52.1387 116.373 51.465C116.193 51.3363 116.016 51.2696 115.416 51.3837" stroke="#DC3434" stroke-width="4.55516" stroke-linecap="round"/>
<path d="M171.139 56.1342C171.148 57.3813 171.316 60.6605 172.051 62.6668C172.496 63.8812 173.739 64.9196 175.411 66.326C176.609 67.3339 178.928 67.9852 180.502 68.1963C183.018 68.5338 184.34 67.8137 185.403 67.3865C186.509 66.9424 187.622 65.3145 188.028 64.3819C188.196 63.9944 188.519 62.5719 189.074 60.2886C190.103 56.0531 189.355 52.1216 189.101 50.9568C188.864 49.8731 188.276 48.8039 187.472 47.5875C186.926 46.7617 186.069 46.4596 185.016 45.8199C184.419 45.5393 183.841 45.3384 183.34 45.1896C183.108 45.1149 182.923 45.0416 182.606 44.9883" stroke="#DC3434" stroke-width="4.55516" stroke-linecap="round"/>
<path d="M178.27 51.3228C178.279 52.3798 178.486 55.3499 179.747 58.4996C180.125 59.4455 180.571 59.7926 180.947 59.9997C181.132 60.1016 181.359 60.0815 181.513 59.9884C183.132 59.0106 182.89 55.1444 182.89 53.3441C182.89 52.7027 182.607 52.2203 182.323 51.7452C181.465 50.9691 180.401 50.3961 179.301 50.3379C179.055 50.3956 178.914 50.53 178.928 51.006" stroke="#DC3434" stroke-width="4.55516" stroke-linecap="round"/>
<path d="M115.754 31.2041C115.754 30.5413 115.938 27.9696 116.445 25.7285C117.227 22.2669 117.779 20.4554 118.155 18.803C119.109 14.6056 119.516 12.9629 119.736 12.6625C120.588 11.4984 125.381 11.3379 128.018 10.9257C128.829 10.7989 131.796 10.8763 136.014 10.8624C137.685 10.8569 138.406 10.8983 138.78 11.0089C139.979 11.3628 139.764 13.7192 139.868 16.6198C139.959 19.1775 139.966 23.9443 139.995 26.4897C140.023 29.035 140.032 29.2156 139.822 29.3164C139.239 29.5971 136.968 29.8787 133.086 30.685C130.992 31.1199 128.601 31.3703 125.946 31.5301C123.292 31.69 120.435 31.6911 118.83 31.6838C117.224 31.6764 116.958 31.6605 116.659 31.5786" stroke="#DC3434" stroke-width="4.55516" stroke-linecap="round"/>
<path d="M146.371 10.8296C146.371 10.8709 146.371 11.1837 146.435 12.1861C146.551 14.0245 146.945 16.6125 147.232 20.3045C147.406 22.5528 147.329 25.5809 147.446 27.171C147.563 28.761 147.797 28.826 149.278 28.9055C150.76 28.9851 153.481 29.0773 156.63 29.1416C159.779 29.206 163.274 29.2398 165.173 29.2673C167.071 29.2948 167.267 29.3149 168.836 29.3253C173.34 29.3552 176.553 29.2879 176.921 29.1721C177.286 29.0574 177.62 28.8855 177.894 28.7066C178.213 28.4978 177.897 27.1035 177.661 25.3593C177.501 24.1733 176.943 21.4684 176.222 17.9535C175.781 15.8088 175.186 13.9686 174.852 12.5373C174.557 11.2725 174.341 10.2967 174.171 9.95181C173.983 9.57072 173.042 9.62589 169.162 9.84167C165.95 10.0203 160.2 9.92658 156.768 9.8764C152.39 9.71693 150.571 9.60432 149.06 9.59564C148.395 9.58696 147.935 9.56961 147.262 9.70524" stroke="#DC3434" stroke-width="4.55516" stroke-linecap="round"/>
<path d="M205.284 34.2344C204.565 34.2344 202.962 34.3595 202.313 34.7201C201.675 35.0745 201.52 36.5158 201.424 39.2187C201.379 40.4834 202.185 41.991 202.712 43.0504C203.058 43.7466 204.266 44.0649 205.306 44.1626C205.724 43.9853 206.069 43.7733 206.383 43.5986C206.549 43.5084 206.728 43.4149 206.931 43.1985" stroke="#DC3434" stroke-width="4.55516" stroke-linecap="round"/>
<path d="M212.246 32.1197C212.278 32.1197 212.454 32.1151 212.882 32.0385C213.15 31.9665 213.52 31.8274 215.28 30.9451C217.04 30.0628 220.177 28.4416 223.665 26.6514" stroke="#DC3434" stroke-width="4.55516" stroke-linecap="round"/>
<path d="M213.08 43.4473C213.09 43.4473 213.931 43.4627 217.122 43.9326C219.476 44.3872 223.322 45.2806 225.367 45.7441C227.413 46.2076 227.541 46.2142 227.673 46.221" stroke="#DC3434" stroke-width="4.55516" stroke-linecap="round"/>
<path d="M215.301 36.6447C215.906 36.6447 217.171 36.6267 219.612 35.914C221.926 35.2193 226.426 33.8485 228.812 33.1314C231.199 32.4144 231.336 32.3925 231.482 32.3545" stroke="#DC3434" stroke-width="4.55516" stroke-linecap="round"/>
<path d="M230.375 22.5481C230.385 22.5481 230.536 22.5296 230.868 22.4579C231.054 22.4048 231.275 22.3176 231.452 22.2629C231.629 22.2083 231.755 22.1887 232.097 22.0684" stroke="#DC3434" stroke-width="4.55516" stroke-linecap="round"/>
<path d="M232.934 41.8672C232.943 41.8672 233.55 41.8672 234.532 41.8788C235.047 41.9135 235.442 42.0102 235.901 42.1311C236.107 42.1793 236.257 42.2006 236.464 42.2236" stroke="#DC3434" stroke-width="4.55516" stroke-linecap="round"/>
<path d="M100.623 11.1748C99.8544 11.1834 97.1301 11.2482 91.1751 11.3641C86.4593 11.4559 78.3032 11.5209 73.922 11.5865C69.5408 11.6522 69.1813 11.6926 68.8344 11.7329C68.4875 11.7731 68.1639 11.8119 67.0508 12.0821" stroke="#DC3434" stroke-width="4.55516" stroke-linecap="round"/>
<path d="M50.9904 11.8984C50.954 11.8984 50.9176 11.8984 48.9494 11.8984C46.9812 11.8984 43.0822 11.8984 38.752 11.9801" stroke="#DC3434" stroke-width="4.55516" stroke-linecap="round"/>
<path d="M80.1966 34.7051C80.1966 34.7169 80.1966 34.7288 76.2122 34.9689C72.2279 35.2091 64.2592 35.6772 59.9401 35.9412C54.2461 36.3799 52.1169 36.6421 50.2867 36.8031C49.559 36.8677 49.2396 36.8975 48.252 37.0879" stroke="#DC3434" stroke-width="4.55516" stroke-linecap="round"/>
<path d="M28.2363 26.2646H43.3193" stroke="#DC3434" stroke-width="4.55516" stroke-linecap="round"/>
<path d="M64.4534 51.4398C64.4412 51.4398 64.4289 51.4398 54.1697 51.2991C43.9104 51.1583 23.4046 50.8769 2.27734 50.5869" stroke="#DC3434" stroke-width="4.55516" stroke-linecap="round"/>
<path d="M2.63281 72.1802C2.73913 72.1802 62.5801 72.8897 65.9491 72.8618C69.3181 72.834 75.9466 72.7783 79.826 72.6861C83.7054 72.5939 84.6348 72.4669 91.7786 72.1802C98.9224 71.8935 112.252 71.4509 120.624 71.0472C128.996 70.6435 132.006 70.2921 137.282 70.111C142.559 69.93 150.011 69.93 154.36 69.9861C158.709 70.0422 159.728 70.1544 163.081 70.3259C166.434 70.4975 172.089 70.7249 175.201 70.8768C180.4 71.1307 187.653 71.5881 191.144 71.4241C191.841 71.3914 195.487 71.256 201.811 71.1272C210.928 70.8875 213.75 70.6291 217.693 70.3296C220.284 70.2183 224.073 70.1897 227.852 70.1601" stroke="#DC3434" stroke-width="4.55516" stroke-linecap="round"/>
</svg>
