<svg width="24" height="24" viewBox="0 0 24 24" fill="none" xmlns="http://www.w3.org/2000/svg">
<g clip-path="url(#clip0_5304_116)">
<path fill-rule="evenodd" clip-rule="evenodd" d="M12.9596 0.565798C12.7491 0.509745 12.525 0.539442 12.3364 0.64838C12.1477 0.757318 12.01 0.936607 11.9533 1.14694L7.9539 16.0749C7.89791 16.2857 7.92784 16.51 8.03712 16.6987C8.14641 16.8874 8.32611 17.0249 8.53676 17.0812L18.9648 19.8755C19.1755 19.9315 19.3998 19.9016 19.5885 19.7923C19.7772 19.683 19.9148 19.5033 19.971 19.2927L23.9739 4.36637C24.0019 4.26191 24.009 4.15296 23.9948 4.04575C23.9807 3.93854 23.9455 3.83517 23.8914 3.74156C23.8373 3.64794 23.7652 3.56591 23.6794 3.50016C23.5935 3.43441 23.4955 3.38623 23.391 3.35837L12.9596 0.565798ZM5.88476 15.5195L8.62076 5.31094L0.609904 7.45551C0.505413 7.48337 0.407438 7.53155 0.321581 7.5973C0.235724 7.66305 0.16367 7.74508 0.109537 7.8387C0.055405 7.93232 0.0202568 8.03569 0.00610242 8.1429C-0.00805196 8.25011 -0.000934891 8.35906 0.0270467 8.46351L4.0299 23.3898C4.08619 23.6005 4.22377 23.7802 4.41245 23.8894C4.60112 23.9987 4.82546 24.0287 5.03619 23.9727L15.4659 21.1784L15.5053 21.1664L7.97962 19.1504C7.22026 18.9467 6.57287 18.4498 6.17972 17.7689C5.78658 17.0881 5.67987 16.279 5.88305 15.5195" fill="#7D7772"/>
</g>
<defs>
<clipPath id="clip0_5304_116">
<rect width="24" height="24" fill="white"/>
</clipPath>
</defs>
</svg>
